<?xml version="1.0" standalone="no"?>
<!DOCTYPE svg PUBLIC "-//W3C//DTD SVG 20010904//EN"
 "http://www.w3.org/TR/2001/REC-SVG-20010904/DTD/svg10.dtd">
<svg version="1.0" xmlns="http://www.w3.org/2000/svg"
 width="700.000000pt" height="700.000000pt" viewBox="0 0 700.000000 700.000000"
 preserveAspectRatio="xMidYMid meet">
<metadata>
Created by potrace 1.11, written by Peter Selinger 2001-2013
</metadata>
<g transform="translate(0.000000,700.000000) scale(0.100000,-0.100000)"
fill="#000000" stroke="none">
<path d="M2427 6986 c-110 -59 -294 -237 -462 -446 -196 -244 -330 -363 -541
-483 -192 -109 -384 -170 -699 -222 -145 -23 -167 -33 -190 -81 -28 -59 -43
-23 202 -489 146 -277 198 -376 266 -505 91 -175 138 -261 165 -305 96 -156
260 -272 440 -313 59 -14 72 -21 73 -37 0 -11 1 -172 1 -357 1 -246 -3 -345
-12 -367 -23 -56 -90 -81 -145 -55 -57 27 -64 57 -67 264 l-3 185 -33 65 c-39
76 -80 113 -164 148 -49 19 -73 23 -118 19 -119 -10 -225 -87 -266 -192 -17
-44 -19 -76 -18 -275 1 -251 9 -299 69 -425 50 -104 103 -171 200 -250 250
-203 616 -209 874 -14 28 22 54 39 56 39 3 0 5 -194 5 -432 -1 -380 -3 -435
-17 -459 -43 -73 -151 -70 -187 6 -10 20 -17 73 -20 144 -4 95 -9 121 -30 165
-34 69 -76 110 -149 145 -148 71 -328 0 -400 -157 -18 -40 -22 -68 -24 -183
-1 -85 4 -160 13 -203 84 -400 481 -654 869 -556 96 24 204 76 271 132 l49 40
3 -167 c3 -188 -4 -212 -67 -249 -28 -16 -38 -17 -72 -7 -31 9 -49 25 -84 74
-74 101 -165 148 -275 141 -157 -10 -281 -140 -281 -296 0 -75 19 -129 74
-211 133 -200 364 -321 602 -319 171 1 308 55 472 184 10 8 13 -35 12 -203 0
-238 8 -284 60 -355 41 -55 97 -92 168 -111 172 -45 345 68 371 244 4 26 7
134 7 240 l0 192 75 0 75 0 1 -222 c1 -221 1 -222 29 -285 95 -212 387 -243
516 -55 55 79 59 107 59 345 l0 218 70 -50 c185 -135 406 -176 618 -114 168
48 312 156 407 303 65 101 82 176 59 264 -30 118 -104 192 -221 222 -129 34
-249 -16 -331 -137 -18 -26 -46 -55 -62 -63 -35 -18 -86 -12 -113 13 -42 37
-47 64 -47 237 l0 166 43 -34 c71 -59 186 -115 282 -138 117 -28 276 -23 375
11 195 67 341 194 427 370 70 144 78 182 78 385 0 119 -2 135 -26 185 -81 173
-294 231 -446 121 -48 -35 -94 -99 -113 -156 -8 -22 -15 -86 -16 -141 -2 -117
-16 -153 -66 -177 -44 -20 -90 -11 -125 25 l-28 29 -3 445 -3 444 58 -44 c197
-152 453 -188 693 -99 168 63 331 222 399 388 50 123 59 190 57 419 -1 197 -3
214 -24 261 -92 201 -339 245 -496 89 -16 -16 -41 -54 -55 -84 -24 -52 -26
-65 -28 -240 -3 -144 -7 -192 -19 -216 -26 -53 -89 -73 -143 -47 -62 31 -63
38 -64 437 l-1 360 40 8 c162 32 310 116 408 232 63 75 71 88 251 431 32 61
74 142 95 180 21 39 66 124 100 190 35 66 80 152 100 190 172 325 171 324 166
360 -11 68 -48 97 -136 110 -378 53 -638 142 -870 298 -142 95 -276 217 -370
336 -193 245 -308 366 -453 475 -111 84 -128 84 -247 5 -231 -152 -428 -228
-685 -266 -64 -10 -354 -10 -425 -1 -238 32 -464 118 -666 253 -107 71 -152
85 -197 61z m159 -306 c124 -75 309 -151 456 -189 171 -44 268 -56 458 -56
156 0 236 8 374 36 191 39 394 119 560 221 68 42 83 48 103 39 40 -18 211
-193 296 -301 185 -236 315 -364 497 -487 249 -168 441 -241 838 -319 25 -5
31 7 -186 -404 -172 -327 -245 -464 -248 -469 -3 -3 -30 5 -174 58 -114 41
-413 132 -480 146 -8 2 -51 13 -95 24 -169 44 -516 109 -673 126 -26 3 -60 7
-77 10 -16 2 -61 7 -100 10 -38 4 -81 8 -95 10 -161 25 -814 26 -1075 1 -134
-13 -241 -25 -285 -31 -14 -2 -45 -7 -70 -10 -25 -3 -58 -9 -75 -11 -16 -3
-39 -7 -50 -9 -317 -47 -723 -153 -1098 -285 -65 -23 -120 -40 -121 -38 -2 1
-49 91 -106 198 -56 107 -122 231 -145 275 -104 197 -206 395 -203 396 14 3
43 8 75 12 252 36 578 166 793 316 168 116 296 241 455 441 84 107 223 254
320 340 18 16 30 11 131 -50z m1354 -1764 c25 -3 77 -7 115 -10 39 -4 84 -8
100 -10 17 -2 57 -7 90 -11 33 -3 71 -8 85 -10 14 -2 70 -11 125 -20 134 -21
382 -72 475 -96 41 -11 85 -22 97 -25 80 -16 472 -140 567 -179 l28 -12 -55
-55 c-129 -127 -316 -169 -492 -112 -38 13 -124 43 -191 68 -215 80 -466 149
-674 185 -36 6 -76 13 -90 15 -53 10 -188 26 -255 32 -38 3 -88 7 -110 9 -47
5 -450 5 -515 0 -82 -6 -189 -16 -207 -19 -10 -2 -47 -7 -83 -11 -52 -5 -357
-64 -420 -80 -153 -40 -312 -91 -500 -163 -214 -81 -326 -83 -478 -9 -51 25
-180 133 -170 142 2 2 62 23 133 48 295 104 575 178 910 242 17 3 46 8 65 11
19 3 73 11 120 19 88 14 150 22 235 30 28 3 70 7 95 10 25 3 86 7 135 11 50 3
92 7 94 9 5 6 720 -3 771 -9z m-165 -460 c44 -4 96 -9 115 -11 19 -2 60 -7 90
-10 30 -3 62 -7 70 -10 8 -2 38 -6 65 -10 110 -14 309 -61 493 -117 l102 -32
0 -238 0 -239 -42 25 c-62 35 -132 56 -208 63 -82 6 -120 -10 -145 -64 -16
-33 -16 -41 -4 -77 18 -52 52 -75 119 -83 114 -13 204 -75 252 -172 25 -51 23
33 31 -1096 2 -388 3 -402 25 -455 12 -30 39 -73 60 -96 173 -190 468 -139
566 97 20 48 24 78 25 185 1 82 3 94 26 118 31 33 68 34 101 1 24 -24 25 -30
23 -131 -3 -178 -44 -287 -149 -393 -63 -62 -113 -95 -185 -119 -68 -22 -78
-23 -155 -24 -211 -1 -394 133 -464 340 -22 65 -24 83 -26 387 -3 427 -5 455
-47 588 -71 228 -181 384 -387 550 -56 44 -116 97 -134 116 -128 139 -195 387
-129 475 24 31 82 65 93 54 3 -3 6 -43 8 -89 3 -94 14 -121 63 -144 61 -29
135 4 155 68 3 12 6 55 7 95 1 50 5 72 14 73 6 0 57 2 112 3 55 1 110 8 123
15 72 39 74 152 3 194 -40 23 -494 24 -572 1 -99 -30 -171 -91 -222 -189 -28
-53 -31 -70 -33 -156 -4 -173 48 -338 150 -477 60 -81 101 -122 217 -215 160
-127 254 -253 306 -410 44 -135 45 -159 46 -922 0 -401 4 -749 8 -772 24 -127
124 -234 248 -266 143 -36 283 20 372 149 36 53 61 67 100 59 21 -5 35 -17 46
-40 15 -31 14 -35 -7 -78 -39 -78 -132 -165 -220 -205 -191 -86 -401 -50 -547
96 -61 62 -91 110 -126 202 -20 53 -21 73 -24 700 -3 876 -3 885 -41 988 -81
218 -260 380 -482 438 -91 23 -234 21 -334 -5 -213 -56 -395 -223 -467 -429
-38 -109 -40 -157 -41 -875 0 -769 -1 -779 -59 -894 -146 -288 -536 -356 -766
-134 -108 104 -137 193 -73 226 45 23 66 18 97 -22 59 -76 104 -120 151 -146
154 -84 339 -38 437 110 63 93 62 83 63 898 1 815 1 821 64 972 60 145 151
258 293 366 231 175 345 376 362 635 11 179 -58 305 -207 376 l-65 31 -257 3
c-281 4 -310 -1 -339 -54 -29 -54 1 -143 54 -160 12 -4 67 -9 122 -10 55 -1
103 -3 106 -3 4 -1 9 -40 11 -88 5 -98 17 -125 65 -148 44 -21 94 -11 129 26
27 28 29 36 30 117 1 47 6 88 12 90 20 6 61 -18 87 -52 23 -30 27 -46 27 -93
0 -70 -14 -135 -46 -213 -43 -106 -108 -185 -223 -271 -97 -73 -177 -152 -242
-240 -48 -64 -72 -106 -141 -249 -14 -30 -42 -135 -55 -210 -9 -50 -14 -180
-14 -388 -1 -173 -4 -333 -7 -355 -28 -212 -180 -382 -389 -433 -38 -10 -170
-6 -214 6 -178 48 -329 206 -361 379 -5 29 -10 98 -10 153 0 92 2 101 25 123
29 30 64 32 96 6 22 -18 24 -29 30 -143 5 -104 10 -133 31 -179 71 -154 238
-233 398 -189 104 28 208 133 236 237 9 37 13 215 13 745 1 383 4 705 8 715
32 92 84 158 152 193 21 10 69 24 107 31 38 6 77 16 87 21 23 12 57 67 57 91
0 35 -32 88 -63 103 -57 30 -206 4 -304 -52 l-43 -25 0 240 0 239 73 22 c220
68 496 128 667 146 25 3 59 6 75 9 17 2 77 7 135 10 58 4 106 8 107 9 6 5 357
-2 428 -8z m-1715 -693 c-1 -413 -1 -419 -25 -486 -55 -159 -161 -264 -318
-316 -174 -58 -361 -12 -490 122 -120 122 -144 197 -146 454 -2 179 -1 190 19
216 28 35 77 37 108 4 20 -21 21 -33 22 -199 2 -221 18 -285 93 -361 92 -95
213 -130 338 -97 61 16 142 73 184 130 61 82 65 119 65 536 l0 371 53 12 c28
6 59 16 67 21 8 5 18 10 23 10 4 0 7 -188 7 -417z m2973 388 l57 -16 1 -365
c0 -407 1 -414 29 -478 30 -67 65 -108 124 -148 171 -113 406 -45 494 144 25
54 27 67 30 247 3 163 6 194 21 215 26 36 73 39 106 6 25 -25 25 -26 25 -203
0 -195 -10 -258 -57 -351 -63 -127 -203 -232 -348 -260 -62 -12 -164 -4 -232
18 -153 51 -256 152 -320 314 -15 35 -17 101 -20 475 -4 414 -3 433 14 426 10
-5 44 -15 76 -24z m-1397 -1187 c149 -41 286 -197 311 -354 3 -14 5 -540 6
-1170 2 -1184 2 -1178 -36 -1202 -22 -14 -64 -8 -88 11 l-24 19 -1 960 c-1
898 -2 961 -19 989 -23 39 -49 54 -95 55 -41 0 -72 -16 -98 -53 -15 -21 -17
-87 -17 -641 l0 -618 -22 -22 c-29 -28 -77 -28 -106 0 l-22 22 0 618 c-1 671
2 639 -55 679 -28 20 -92 19 -123 -2 -52 -33 -50 -10 -51 -1032 l-1 -955 -24
-19 c-31 -25 -75 -24 -101 3 -11 12 -20 24 -21 27 -1 3 -2 514 -3 1135 -1 807
2 1148 10 1197 39 226 248 391 474 372 30 -2 78 -11 106 -19z"/>
<path d="M3430 6253 c-53 -8 -127 -37 -175 -68 -143 -92 -218 -237 -211 -409
6 -123 44 -213 128 -298 181 -184 465 -188 647 -9 250 247 151 660 -184 768
-41 14 -161 23 -205 16z m141 -233 c79 -22 157 -121 162 -205 10 -214 -243
-333 -393 -185 -49 48 -71 100 -71 166 0 70 25 127 79 174 64 57 138 73 223
50z"/>
<path d="M3370 2842 c-14 -2 -56 -13 -95 -24 -91 -26 -138 -70 -134 -125 4
-51 14 -70 52 -93 39 -24 70 -25 128 -4 24 8 69 17 99 20 30 3 60 6 66 8 15 6
174 -20 207 -33 80 -31 155 10 164 90 9 80 -46 122 -201 155 -64 13 -216 17
-286 6z"/>
</g>
</svg>
